# xmcd
#
# Track frame offsets: 
#        150
#        8437
#        30187
#        44319
#        67090
#        83965
#        100652
#        117189
#        121014
#        135414
#        156226
#        173476
#        190988
#        208650
#        227850
#
# Disc length: 3533 seconds
#
# Revision: 0
# Processed by: cddbd v1.5.2PL0 Copyright (c) Steve Scherf et al.
# Submitted via: ExactAudioCopyFreeDBPlugin 1.0
#
DISCID=b40dcb0f
DTITLE=Various Artist - Desstres Family
DYEAR=2013
DGENRE=Hip-Hop
TTITLE0=DJ Alroy - Intro
TTITLE1=Shins and Fenek - On Porte Des Oeillères
TTITLE2=Persona Non Grata - Pas Le Choix
TTITLE3=Maon and Dezme and Kekos and Tyriss - Le Langage 
TTITLE4=Najavibes - Positive Action Desstres Mix
TTITLE5=Spiral and DJ Olga - Oiseau Migrateur
TTITLE6=Oni/Epik and Pesla - Hikikomori
TTITLE7=Beatbox Stax - Interlude
TTITLE8=Bobo and Dilem - D.E.S.S.T.R.E.S.
TTITLE9=Le Cercle and Muchach - Monter Au Charbon
TTITLE10=Kekos and Tyriss - C'est Le Système
TTITLE11=Mans1 - Le MC
TTITLE12=C-Kor and KT - En Guise D'unité
TTITLE13=Tyriss and Kekos and Dezme and Maon - Esprit Positif 
TTITLE14=V.A. - Morceau Collectif Desstres 2010
EXTD=
EXTT0=
EXTT1=
EXTT2=
EXTT3=
EXTT4=
EXTT5=
EXTT6=
EXTT7=
EXTT8=
EXTT9=
EXTT10=
EXTT11=
EXTT12=
EXTT13=
EXTT14=
PLAYORDER=
